<svg xmlns="http://www.w3.org/2000/svg" xmlns:xlink="http://www.w3.org/1999/xlink" version="1.1" x="0px" y="0px" viewBox="0 0 100 125" style="enable-background:new 0 0 100 100;" xml:space="preserve"><path d="M93,52H7c-1.1,0-2-0.9-2-2s0.9-2,2-2h86c1.1,0,2,0.9,2,2S94.1,52,93,52z M95,26c0-1.1-0.9-2-2-2H7c-1.1,0-2,0.9-2,2  s0.9,2,2,2h86C94.1,28,95,27.1,95,26z M95,74c0-1.1-0.9-2-2-2H7c-1.1,0-2,0.9-2,2s0.9,2,2,2h86C94.1,76,95,75.1,95,74z"/><text x="0" y="115" fill="#000000" font-size="5px" font-weight="bold" font-family="'Helvetica Neue', Helvetica, Arial-Unicode, Arial, Sans-serif">Created by Khuzema</text><text x="0" y="120" fill="#000000" font-size="5px" font-weight="bold" font-family="'Helvetica Neue', Helvetica, Arial-Unicode, Arial, Sans-serif">from the Noun Project</text></svg>